<svg width="63.185" xmlns="http://www.w3.org/2000/svg" height="63.185" id="screenshot-9c482190-dd43-806e-8006-140bd67de800" viewBox="0 0 63.185 63.185" xmlns:xlink="http://www.w3.org/1999/xlink" fill="none" version="1.1"><g id="shape-9c482190-dd43-806e-8006-140bd67de800" rx="0" ry="0"><g id="shape-9c482190-dd43-806e-8006-140bbe47d4f3"><defs><linearGradient id="fill-color-gradient-render-2-0" x1="0.8452952676007706" y1="0.9279664281388416" x2="0.0615247855214186" y2="0.13331117238828455" gradientTransform=""><stop offset="0" stop-color="#0f24ff" stop-opacity="1"/><stop offset="1" stop-color="#d721ff" stop-opacity="1"/></linearGradient><pattern patternUnits="userSpaceOnUse" x="5.5922786881837965" y="5.592278688183569" width="52" height="52" id="fill-0-render-2"><g><rect width="52" height="52" style="fill: url(&quot;#fill-color-gradient-render-2-0&quot;);"/></g></pattern></defs><g class="fills" id="fills-9c482190-dd43-806e-8006-140bbe47d4f3"><ellipse cx="31.592278688183796" cy="31.59227868818357" rx="26" ry="26" transform="matrix(-0.969332, -0.245756, 0.245756, -0.969332, 54.451689, 69.979666)" fill="url(#fill-0-render-2)"/></g></g><g id="shape-9c482190-dd43-806e-8006-140bbe47d4f4" height="20" width="20" rx="0" ry="0" style="fill: rgb(0, 0, 0);"><g id="shape-9c482190-dd43-806e-8006-140bbe47d4fb" style="display: none;"><g class="fills" id="fills-9c482190-dd43-806e-8006-140bbe47d4fb"><rect width="58" height="58" x="3" transform="matrix(1.000000, 0.000000, 0.000000, 1.000000, 0.000000, 0.000000)" style="fill: none;" ry="0" fill="none" rx="0" y="3"/></g></g><g id="shape-9c482190-dd43-806e-8006-140bbe47d4fc"><g class="fills" id="fills-9c482190-dd43-806e-8006-140bbe47d4fc"><path d="M18.285,43.600L22.756,35.806C20.863,35.806,19.192,35.055,17.742,33.552C16.292,32.050,15.567,30.243,15.567,28.133C15.567,25.958,16.312,24.126,17.802,22.635C19.292,21.145,21.125,20.400,23.300,20.400C25.475,20.400,27.308,21.145,28.798,22.635C30.288,24.126,31.033,25.958,31.033,28.133C31.033,28.737,30.943,29.352,30.761,29.976C30.580,30.600,30.308,31.255,29.946,31.940L23.300,43.600L18.285,43.600ZZM35.685,43.600L40.156,35.806C38.263,35.806,36.592,35.055,35.142,33.552C33.692,32.050,32.967,30.243,32.967,28.133C32.967,25.958,33.712,24.126,35.202,22.635C36.692,21.145,38.525,20.400,40.700,20.400C42.875,20.400,44.708,21.145,46.198,22.635C47.688,24.126,48.433,25.958,48.433,28.133C48.433,28.818,48.343,29.483,48.161,30.127C47.980,30.772,47.728,31.376,47.406,31.940L40.700,43.600L35.685,43.600ZZM23.285,31.517C24.222,31.517,25.022,31.189,25.686,30.534C26.351,29.879,26.683,29.083,26.683,28.148C26.683,27.212,26.356,26.411,25.701,25.747C25.046,25.082,24.250,24.750,23.314,24.750C22.378,24.750,21.578,25.077,20.914,25.732C20.249,26.388,19.917,27.183,19.917,28.119C19.917,29.055,20.244,29.855,20.899,30.520C21.554,31.184,22.350,31.517,23.285,31.517ZZM40.685,31.517C41.622,31.517,42.422,31.189,43.086,30.534C43.751,29.879,44.083,29.083,44.083,28.148C44.083,27.212,43.756,26.411,43.101,25.747C42.446,25.082,41.650,24.750,40.715,24.750C39.778,24.750,38.978,25.077,38.314,25.732C37.649,26.388,37.317,27.183,37.317,28.119C37.317,29.055,37.644,29.855,38.299,30.520C38.954,31.184,39.750,31.517,40.685,31.517ZZM40.700,28.133ZM23.300,28.133Z" style="fill: rgb(255, 255, 255); fill-opacity: 1;"/></g></g></g></g></svg>